<svg xmlns="http://www.w3.org/2000/svg" viewBox="0 0 731.67004 504.36517"><path d="m0,489.97693c0,.66003.53003,1.19,1.19006,9.19h729.28998c.65997-8,1.19-8.52997,1.19-9.19,0-.65997-.53003-1.19-1.19,6.81H1.19006c-.66003-8-1.19006-7.46997-1.19006-6.81Z" fill="var(--fb-deco-dark, #3f3d56)"/><polygon points="422.05548 295.39438 431.40738 474.28925 454.77716 471.487 467.57983 286.55457 422.05548 295.39438" fill="var(--fb-deco-skin, #ffb6b6)"/><path d="m457.84683,463.46906s13,34-4,36-66,11-66-2,25-18,25-18c0,0,12-19,17-17s9,13,18,10,10-9,10-9Z" fill="var(--fb-deco-dark, #2f2e41)"/><rect x="394.34683" y="58.96907" width="29" height="37" fill="var(--fb-deco-skin, #ffb6b6)"/><circle cx="408.09683" cy="44.71906" r="33.25" fill="var(--fb-deco-skin, #ffb6b6)"/><path d="m444.84683,180.46906l4-33,19,1,4,39,15.74121,72.22266.03809-.00977-.0166.00586,4.57324,19.72266c2.79297,3.46387,4.71484,7.54688,5.60547,11.90625,2.38086,10.87988-1.30078,20.92383-8.22363,22.43848-6.92188,1.51465-14.46094-6.0752-16.83887-16.95215-1.01074-4.33496-.96777-8.84863.12402-13.16309l-4.26758-14.92871-23.73535-88.24219Z" fill="var(--fb-deco-skin, #ffb6b6)"/><path d="m392.34683,84.96907h35l34,18-12,71.99998,14,45s-75,23-98,13l10-58-7-77s24-13,24-12.99998Z" fill="var(--fb-deco-accent, #6c63ff)"/><path d="m454.84683,103.46907s12-4,14,3,7,48.99998,7,48.99998l-30,1s9-53,9-52.99998Z" fill="var(--fb-deco-accent, #6c63ff)"/><path d="m291.04028,235.05213c-1.2124,0-2.39404-.09277-3.52979-.28027-4.62793-.76465-7.95459-3.01172-9.36768-6.32715-1.41357-3.31543-.73145-7.271,1.92139-11.13916,2.60547-3.79834,6.81494-7.07324,11.85352-9.2207,4.08203-1.80469,8.59326-2.62451,13.04688-2.38184l41.41064-21.55225,3.00293-31.03027,22.91553-9.37451,3.18555,42.20898c.53418,7.08105-3.51562,13.66211-10.07617,16.37646l-52.26514,22.49805c-2.91162,3.39307-6.63184,6.08105-10.76611,7.77686-3.77734,1.61035-7.69238,2.4458-11.33154,2.4458Z" fill="var(--fb-deco-skin, #ffb6b6)"/><path d="m376.84683,97.46907s-20-7-26,15c-6,21.99998-4,41.99998-4,41.99998l34-3s-4-54-4-53.99998Z" fill="var(--fb-deco-accent, #6c63ff)"/><g><path d="m267.26675,179.96906c0,9.95996,8.08008,18.04004,18.04004,18.04004,5.34961,0,10.14941-2.33008,13.4502-6.02051,0,0,.00977-.00977.01953-.00977,2.15039-2.41016,3.66016-5.41016,4.25977-8.72949.08008-.33984.12988-.69043.16992-1.0498.09082-.69043.13086-1.39062.14062-2.11035v-.12012c0-9.95996-8.07031-18.04004-18.04004-18.04004-6.62988,0-12.43066,3.58008-15.56055,8.91992-.5.83008-.91992,1.70996-1.25977,2.62988-.79004,2.00977-1.21973,4.2002-1.21973,6.49023Z" fill="var(--fb-deco-accent, #6c63ff)"/></g><g><polygon points="485.65204 317.56147 472.98526 314.47077 497.81808 232.10979 493.92685 215.05522 521.16138 221.85832 507.96225 236.47968 485.65204 317.56147" fill="var(--fb-deco-dark, #3f3d56)"/><path d="m553.06213,187.05042c8.49817-25.98347.06781-52.05804-18.82898-58.23846-18.89685-6.18042-41.10568,9.87325-49.60388,35.85672s-.06784,52.05804,18.82898,58.23846c18.89685,6.18042,41.10571-9.87325,49.60388-35.85672Zm-3.80182-1.24342c-7.55408,23.09685-27.29504,37.36638-44.09235,31.87263-16.79727-5.49374-24.29095-28.67068-16.73688-51.76753s27.29504-37.36638,44.09235-31.87263,24.29095,28.67068,16.73688,51.76753Z" fill="var(--fb-deco-dark, #3f3d56)"/></g><path d="m440.3063,44.73933l5.77026,15.2027,13.97366,25.06826c14.52643,26.05988,20.86026,55.89335,18.17499,85.60737v.00005l-37.0946-1.82433-4.29333-12.15436c-10.82681-30.6505-14.806-63.12869-13.46542-95.60755.64145-15.54086-6.14038-27.34269-21.02502-35.06242l37.95947,18.77027h0Z" fill="var(--fb-deco-dark, #2f2e41)"/><path d="m444.34683,55.96906l-16-15s-21-7-30-13c-5.69443-3.79628-14.19113.41397-19.6644,4.01882-3.51367,2.3142-8.00522,2.52501-11.69882.51033h0c-2.65027-1.44561-3.81223-4.63636-2.71213-7.44768v-.00002c4.08322-10.43485,15.11041-16.38986,26.07535-14.08145h.00003l7.89151-5.63679c8.13889-5.8135,18.72186-6.95748,27.91507-3.01753l5.1752,2.21795c5.22681,2.24007,9.66803,5.98611,12.75729,10.76042v.00002c4.01727,6.2085,5.47614,13.73072,4.07095,20.99084l-3.81003,19.68511-.00003-.00002Z" fill="var(--fb-deco-accent, #6c63ff)"/><polygon points="354.92703 297.98456 345.71155 476.88651 369.24585 476.51828 401.1218 293.90436 354.92703 297.98456" fill="var(--fb-deco-skin, #ffb6b6)"/><path d="m460.15723,212.39437s20,31,18,74.99998c0,0-56,35-126,14,0,0,7-62,16-72l92-17v.00002Z" fill="var(--fb-deco-dark, #2f2e41)"/><path d="m373.84683,463.46906s13,34-4,36-66,11-66-2,25-18,25-18c0,0,12-19,17-17s9,13,18,10,10-9,10-9Z" fill="var(--fb-deco-dark, #2f2e41)"/></svg>